<svg xmlns="http://www.w3.org/2000/svg" width="1080" height="1080" xmlns:v="https://vecta.io/nano"><path vector-effect="non-scaling-stroke" d="M-540-540H540V540H-540z" fill="#fff" visibility="hidden" transform="translate(540 540)"/><path vector-effect="non-scaling-stroke" transform="matrix(1.38 0 0 1.38 -12.59 -12.6)" d="M779.958 400.003c0 209.844-170.109 379.956-379.956 379.956S20.042 609.848 20.042 400.003 190.153 20.04 400.002 20.04s379.956 170.123 379.956 379.963z" fill="#ffce67"/><path vector-effect="non-scaling-stroke" transform="matrix(1.38 0 0 1.38 -12.4 -12.4132)" d="M655.801 284.114H262.846l-.489-.813-13.598-15.66 24.74-4.353 64.475-11.338 60.735-10.686 64.475-11.349 60.747-10.68 64.475-11.338 60.299-10.607-.076-.489-9.513-54.001.01-.001-.977-5.52h-.006l-.567-3.235-56.502 9.94-60.748 10.685-64.477 11.337-60.733 10.688-64.464 11.342-60.746 10.675-64.478 11.354-14.119 2.482c-2.357-.458-4.713-.646-6.994-.489l-15.185 1.034c-5.11.348-9.835 2.472-13.707 5.765l-10.743 1.89-.482.082 2.212 12.559c-.602 2.323-.942 4.751-.942 7.243v84.904c0 8.518 3.683 16.1 9.389 20.983v1.822h2.425c2.965 1.96 6.328 3.269 9.939 3.695v301.632c0 8.603 6.963 15.57 15.567 15.57h442.39a15.57 15.57 0 0 0 15.563-15.57V351.388c0-1.043-.105-2.063-.304-3.048h15.364v-64.226z" fill="#e0915f"/><path vector-effect="non-scaling-stroke" transform="matrix(1.38 0 0 1.38 -12.3918 -12.1506)" d="M145.354 324.726c0-8.602 6.962-15.572 15.566-15.572h442.391c8.59 0 15.563 6.97 15.563 15.572v302.278c0 8.604-6.973 15.572-15.563 15.572H160.92c-8.604 0-15.566-6.969-15.566-15.572V324.726z" fill="#2c2e36"/><g fill="#fbe1ba"><path vector-effect="non-scaling-stroke" d="M-176.815-2.475h353.63v4.95h-353.63z" transform="matrix(1.38 0 0 1.38 507.94 788.92)"/><path vector-effect="non-scaling-stroke" d="M-2.48-19.785h4.96v39.57h-4.96z" transform="matrix(1.38 0 0 1.38 623.65 819.64)"/><path vector-effect="non-scaling-stroke" d="M-2.475-19.785h4.95v39.57h-4.95z" transform="matrix(1.38 0 0 1.38 392.79 819.64)"/></g><path vector-effect="non-scaling-stroke" transform="matrix(1.38 0 0 1.38 -12.1822 -12.0526)" d="M378.195 365.64c-49.779 0-90.131 40.366-90.131 90.129 0 49.773 40.352 90.127 90.131 90.127 49.772 0 90.121-40.353 90.121-90.127-.001-49.763-40.349-90.129-90.121-90.129zm0 168.106c-43.063 0-77.979-34.92-77.979-77.977s34.916-77.972 77.979-77.972c43.056 0 77.97 34.911 77.97 77.972s-34.914 77.977-77.97 77.977z" fill="#231f20"/><path vector-effect="non-scaling-stroke" transform="matrix(1.38 0 0 1.38 -12.1722 -12.0526)" d="M289.698 455.77c0 48.797 39.701 88.492 88.497 88.492s88.487-39.695 88.487-88.492-39.694-88.495-88.487-88.495-88.497 39.694-88.497 88.495zm8.889 0c0-43.892 35.712-79.604 79.607-79.604s79.598 35.712 79.598 79.604-35.702 79.603-79.598 79.603-79.607-35.709-79.607-79.603z" fill="#fbe1ba"/><path vector-effect="non-scaling-stroke" transform="matrix(1.38 0 0 1.38 -12.3718 -12.1236)" d="M603.311 320.998H160.92c-2.056 0-3.729 1.674-3.729 3.729v302.278c0 1.551.955 2.883 2.303 3.438 21.343-69.867 65.778-131.131 125.424-176.861 1.18-50.479 42.519-91.197 93.276-91.197 21.26 0 40.818 7.223 56.531 19.228 34.377-8.704 70.61-13.433 108.095-13.433a445.02 445.02 0 0 1 64.218 4.656v-48.108c0-2.056-1.685-3.73-3.727-3.73z" fill="#525760"/><path vector-effect="non-scaling-stroke" transform="matrix(1.38 0 0 1.38 -12.1586 -12.0248)" d="M341.231 411.158c0-3.885 1.55-7.014 4.244-8.568 2.699-1.566 6.188-1.348 9.563.602l6.999 4.039c15.582-7.156 31.732-13.458 48.417-18.746-9.779-4.706-20.694-7.422-32.258-7.422-35.38 0-65.03 24.735-72.719 57.803 11.467-7.682 23.384-14.846 35.755-21.4l-.001-6.308z" fill="#424242"/><path vector-effect="non-scaling-stroke" transform="matrix(1.38 0 0 1.38 -12.0858 -12.0026)" d="M430.655 460.912c4.908-2.83 4.908-7.469 0-10.289l-29.713-17.158-17.823-10.293-29.716-17.156c-4.896-2.83-8.911-.512-8.911 5.154v34.301 20.596 34.311c0 5.66 4.015 7.963 8.911 5.133l29.716-17.143 17.823-10.307 29.713-17.149z" fill="#231f20"/><path vector-effect="non-scaling-stroke" transform="matrix(1.38 0 0 1.38 -12.0758 -11.9888)" d="M347.924 406.818c-1.147.662-1.805 2.252-1.798 4.352v89.207c0 2.094.65 3.672 1.798 4.336s2.853.438 4.665-.619l29.717-17.139 47.535-27.453c1.818-1.049 2.863-2.414 2.863-3.74 0-1.32-1.045-2.676-2.863-3.728l-77.246-44.602c-1.818-1.057-3.526-1.276-4.671-.614z" fill="#fbe1ba"/><g fill="#dec5a5"><path vector-effect="non-scaling-stroke" transform="matrix(1.38 0 0 1.38 -12.178 -12.0564)" d="M290.073 448.279l9.908-7.049c6.855-36.967 39.289-65.065 78.214-65.065a79.08 79.08 0 0 1 38.343 9.881l11.579-3.278c-14.225-9.76-31.406-15.494-49.922-15.494-46.269.001-84.291 35.708-88.122 81.005z"/><path vector-effect="non-scaling-stroke" transform="matrix(1.38 0 0 1.38 -12.0834 -11.996)" d="M347.924 406.818c-1.147.662-1.805 2.252-1.798 4.352v2.785l9.614-4.711-3.146-1.813c-1.817-1.056-3.525-1.275-4.67-.613z"/></g><g fill="#fbe1ba"><path vector-effect="non-scaling-stroke" d="M-3.44-31.96l67.55 52.82.08.49-60.3 10.61-68.08-53.23z" transform="matrix(1.38 0 0 1.38 764.61 193.56)"/><path vector-effect="non-scaling-stroke" d="M-3.65-31.96L64.4 21.27 3.67 31.96-64.4-21.28z" transform="matrix(1.38 0 0 1.38 418.93 254.42)"/><path vector-effect="non-scaling-stroke" d="M-3.66-31.96l68.07 53.23L3.67 31.96-64.41-21.27z" transform="matrix(1.38 0 0 1.38 245.93 284.86)"/><path vector-effect="non-scaling-stroke" d="M-3.67-31.95l68.08 53.23L3.66 31.96-64.41-21.27z" transform="matrix(1.38 0 0 1.38 591.92 223.99)"/></g><g fill="#2c2e36"><path vector-effect="non-scaling-stroke" d="M22.72-31.38l11.06 62.76-67.56-52.82z" transform="matrix(1.38 0 0 1.38 806.56 179.03)"/><path vector-effect="non-scaling-stroke" d="M-1.8-32.28l68.08 53.23L1.8 32.28-66.28-20.95z" transform="matrix(1.38 0 0 1.38 678.41 208.78)"/><path vector-effect="non-scaling-stroke" d="M-1.8-32.28l68.06 53.22L1.79 32.28-66.26-20.94z" transform="matrix(1.38 0 0 1.38 505.43 239.2)"/><path vector-effect="non-scaling-stroke" d="M-1.8-32.29l68.07 53.24L1.8 32.29-66.27-20.93z" transform="matrix(1.38 0 0 1.38 332.44 269.63)"/><path vector-effect="non-scaling-stroke" d="M-34.28-31.58l.48-.09 68.08 53.23-57.42 10.11z" transform="matrix(1.38 0 0 1.38 203.69 299.21)"/></g><g fill="#fffce8"><path vector-effect="non-scaling-stroke" d="M27.4-7.67l5.95 4.65-60.74 10.69-5.96-4.65z" transform="matrix(1.38 0 0 1.38 726.99 163.77)"/><path vector-effect="non-scaling-stroke" d="M27.38-7.67l5.97 4.65L-27.4 7.67l-5.95-4.65z" transform="matrix(1.38 0 0 1.38 554.01 194.21)"/><path vector-effect="non-scaling-stroke" d="M27.4-7.67l5.94 4.65-60.75 10.68-5.93-4.64z" transform="matrix(1.38 0 0 1.38 381.03 224.64)"/></g><path vector-effect="non-scaling-stroke" d="M27.41-7.66l5.93 4.64L-27.4 7.66l-5.94-4.64z" fill="#ededee" transform="matrix(1.38 0 0 1.38 208.01 255.07)"/><g fill="#525760"><path vector-effect="non-scaling-stroke" d="M26.26-7.03l.98 5.52-48.53 8.54-5.95-4.65z" transform="matrix(1.38 0 0 1.38 802.48 149.9)"/><path vector-effect="non-scaling-stroke" d="M29.26-8l5.95 4.65L-29.25 8l-5.96-4.65z" transform="matrix(1.38 0 0 1.38 640.5 178.99)"/><path vector-effect="non-scaling-stroke" d="M29.26-8l5.95 4.65L-29.27 8l-5.94-4.65z" transform="matrix(1.38 0 0 1.38 467.52 209.42)"/><path vector-effect="non-scaling-stroke" d="M29.27-7.99l5.93 4.64-64.47 11.34-5.93-4.64z" transform="matrix(1.38 0 0 1.38 294.52 239.85)"/><path vector-effect="non-scaling-stroke" d="M4.71 1.58l-8.44 1.49-.98-5.53 3.48-.61z" transform="matrix(1.38 0 0 1.38 163.69 263.48)"/></g><g fill="#fbe1ba"><path vector-effect="non-scaling-stroke" d="M-2.15-32.11l-57.37 63.72v.5H1.71l57.81-64.22z" transform="matrix(1.38 0 0 1.38 253.24 387.37)"/><path vector-effect="non-scaling-stroke" d="M-1.92-32.11l-57.84 64.22H1.92l57.84-64.22z" transform="matrix(1.38 0 0 1.38 604.23 387.37)"/><path vector-effect="non-scaling-stroke" d="M-1.94-32.11l-57.8 64.22H1.93l57.81-64.22z" transform="matrix(1.38 0 0 1.38 779.88 387.37)"/><path vector-effect="non-scaling-stroke" d="M-1.92-32.11l-57.83 64.22H1.93l57.82-64.22z" transform="matrix(1.38 0 0 1.38 428.58 387.37)"/></g><g fill="#2c2e36"><path vector-effect="non-scaling-stroke" d="M-3.84-32.11l-57.8 64.22H3.81l57.83-64.22z" transform="matrix(1.38 0 0 1.38 340.76 387.37)"/><path vector-effect="non-scaling-stroke" d="M-3.83-32.11l-57.81 64.22H3.81l57.83-64.22z" transform="matrix(1.38 0 0 1.38 516.41 387.37)"/><path vector-effect="non-scaling-stroke" d="M-3.8-32.11l-57.84 64.22H3.84l57.8-64.22z" transform="matrix(1.38 0 0 1.38 692.04 387.37)"/><path vector-effect="non-scaling-stroke" d="M29.15-32.11h-.49l-57.81 64.22h58.3z" transform="matrix(1.38 0 0 1.38 822.87 387.37)"/></g><path vector-effect="non-scaling-stroke" d="M-28.31-2.81l-5.05 5.62h61.67l5.05-5.62z" fill="#ededee" transform="matrix(1.38 0 0 1.38 285.2 351.47)"/><g fill="#fffce8"><path vector-effect="non-scaling-stroke" d="M-28.31-2.81l-5.05 5.62h61.67l5.05-5.62z" transform="matrix(1.38 0 0 1.38 460.86 351.47)"/><path vector-effect="non-scaling-stroke" d="M-28.32-2.81l-5.04 5.62H28.3l5.06-5.62z" transform="matrix(1.38 0 0 1.38 636.51 351.47)"/><path vector-effect="non-scaling-stroke" d="M-28.31-2.81l-5.06 5.62h61.68l5.06-5.62z" transform="matrix(1.38 0 0 1.38 812.14 351.47)"/></g><g fill="#525760"><path vector-effect="non-scaling-stroke" d="M-30.21-2.81l-5.05 5.62h65.47l5.05-5.62z" transform="matrix(1.38 0 0 1.38 373.03 351.47)"/><path vector-effect="non-scaling-stroke" d="M-30.21-2.81l-5.05 5.62h65.48l5.04-5.62z" transform="matrix(1.38 0 0 1.38 548.68 351.47)"/><path vector-effect="non-scaling-stroke" d="M-30.2-2.81l-5.05 5.62H30.2l5.05-5.62z" transform="matrix(1.38 0 0 1.38 724.32 351.47)"/><path vector-effect="non-scaling-stroke" d="M-4.3 2.81h8.6v-5.62H.75z" transform="matrix(1.38 0 0 1.38 857.25 351.47)"/><path vector-effect="non-scaling-stroke" transform="matrix(1.38 0 0 1.38 -12.4342 -12.3472)" d="M162.194 185.396l-15.185 1.034c-13.051.886-23.663 13.246-23.663 27.539v84.904c0 14.701 10.928 26.662 24.394 26.662h77.683c13.454 0 24.405-11.961 24.405-26.662v-7.962c0-10.326-3.885-24.664-9.029-33.334l-.562-.938-48.798-56.2 1.258 1.745c-6.145-10.341-19.252-17.561-30.503-16.788z"/></g><path vector-effect="non-scaling-stroke" transform="matrix(1.38 0 0 1.38 -12.4066 -12.3134)" d="M147.706 198.525c-7.29.499-13.286 7.451-13.286 15.443v84.904c0 8.003 6.007 14.544 13.319 14.544h77.683c7.323 0 13.308-6.541 13.308-14.544v-7.962c0-7.996-3.257-20.03-7.243-26.741l-48.089-55.392c-3.988-6.716-13.209-11.785-20.519-11.296l-15.173 1.044z" fill="#2c2e36"/><g fill="#ccae8b"><path vector-effect="non-scaling-stroke" transform="matrix(1.38 0 0 1.38 -12.388 -12.2896)" d="M167.939 220.427c0 5.327-3.965 9.651-8.849 9.651s-8.828-4.324-8.828-9.651c0-5.336 3.943-9.666 8.828-9.666s8.849 4.33 8.849 9.666z"/><path vector-effect="non-scaling-stroke" transform="matrix(1.38 0 0 1.38 -12.388 -12.1742)" d="M167.939 293.089c0 5.341-3.965 9.663-8.849 9.663s-8.828-4.322-8.828-9.663c0-5.334 3.943-9.654 8.828-9.654s8.849 4.32 8.849 9.654z"/><path vector-effect="non-scaling-stroke" transform="matrix(1.38 0 0 1.38 -12.2926 -12.1742)" d="M226.609 293.089c0 5.341-3.965 9.663-8.828 9.663-4.896 0-8.849-4.322-8.849-9.663 0-5.334 3.953-9.654 8.849-9.654 4.863 0 8.828 4.32 8.828 9.654z"/></g><g fill="#fbe1ba"><path vector-effect="non-scaling-stroke" d="M-173.79-1.57h347.58v3.14h-347.58z" transform="matrix(1.38 0 0 1.38 503.77 453.22)"/><path vector-effect="non-scaling-stroke" transform="matrix(1.38 0 0 1.38 -12.3842 -12.2916)" d="M162.344 218.816c0 2.677-1.907 4.847-4.258 4.847s-4.258-2.17-4.258-4.847 1.906-4.847 4.258-4.847 4.258 2.169 4.258 4.847z"/><path vector-effect="non-scaling-stroke" transform="matrix(1.38 0 0 1.38 -12.3772 -12.1796)" d="M161.467 291.415c0 2.234-1.577 4.044-3.523 4.044s-3.523-1.81-3.523-4.044 1.578-4.042 3.523-4.042 3.523 1.809 3.523 4.042z"/></g></svg>